<svg class="svg-icon" style="width: 1em; height: 1em;vertical-align: middle;fill: currentColor;overflow: hidden;" viewBox="0 0 1024 1024" version="1.1" xmlns="http://www.w3.org/2000/svg"><path d="M335.5 472.7H173.1v315.8h162.4V472.7zM128 839.6h769.7v48.1H128v-48.1z m724.7-366.9H690.3v315.8c86.1 0 76.2-0.1 162.3-0.1l0.1-315.7zM365.5 184v604.5h294.7V184.1l-294.7-0.1z m324.8 0.1v240.5h207.4v48.1h-15.1l0.1 315.7h15v33l-769.7 0.1v-33h15.1l-0.1-315.8h-15v-48.1h207.4V184.1l-15-0.1v-48.1h384.8V184l-14.9 0.1z" fill="#7FAB29" /><path d="M786.5 668.2h36.1v87.2h-36.1v-87.2z m-66.1 0h36.1v87.2h-36.1v-87.2z m-451.1 0h36.1v87.2h-36.1v-87.2z m-66.1 0h36.1v87.2h-36.1v-87.2z m66.1-156.5h36.1V632h-36.1V511.7z m-66.1 0h36.1V632h-36.1V511.7z m583.3 0h36.1V632h-36.1V511.7z m-66.1 0h36.1V632h-36.1V511.7zM576 668.2h42.1v87.2H576v-87.2z m0-156.5h42.1V632H576V511.7zM407.6 668.2h42.1v87.2h-42.1v-87.2z m0-156.5h42.1V632h-42.1V511.7z m84.2 156.5h42.1v87.2h-42.1v-87.2z m0-156.5h42.1V632h-42.1V511.7zM479.8 226h66.1v72.2h72.2v69.2h-72.2v69.1h-66.1v-69.1h-72.2v-69.2h72.2z" fill="#7FAB29" /></svg>